<?xml version="1.0" standalone="no"?><!DOCTYPE svg PUBLIC "-//W3C//DTD SVG 1.1//EN" "http://www.w3.org/Graphics/SVG/1.1/DTD/svg11.dtd"><svg class="icon" width="200px" height="200.00px" viewBox="0 0 1024 1024" version="1.1" xmlns="http://www.w3.org/2000/svg"><path fill="#333333" d="M762.7663 370.674251c15.310707 0 29.467125-8.772804 35.860742-12.299117 0.610914-0.309038 0-5.39487 0 0l0 87.132476 19.383466 0c0.01535-42.405809 0.024559-93.539396 0.024559-102.401228 0-4.607948-0.975211-10.417257-7.021927-12.854772-6.472412-2.623757-12.485359 2.199085-13.682627 3.14155-8.492418 6.696516-17.671475 16.668635-34.339086 16.668635l-0.653893 0-0.211824 0-0.649799 0c-16.681938 0-25.847691-9.972119-34.345226-16.668635-1.190105-0.941442-7.213285-5.764284-13.685697-3.14155-6.048763 2.437515-7.009647 8.246825-7.009647 12.854772 0 8.861832 0.021489 59.995419 0.021489 102.401228l19.367093 0L725.823923 358.375134c0-5.39487-0.61296-0.309038 0 0 6.404873 3.526313 19.770276 12.299117 35.868929 12.299117L762.7663 370.674251zM141.92029 672.981415c-6.535857 6.348592-14.725376 9.572006-24.325012 9.572006-9.895371 0-17.893532-3.106758-24.479531-9.501398-6.687306-6.550183-10.101055-16.629749-10.101055-30.017664 0-13.369495 3.414773-23.428595 10.101055-29.928636 6.486738-6.291287 14.725376-9.467629 24.479531-9.467629 9.584286 0 17.749246 3.192715 24.266683 9.508561 6.739495 6.507204 10.153244 16.366759 10.153244 29.294187C152.015206 656.163377 148.624992 666.443511 141.92029 672.981415M164.268274 674.997328c4.334725-8.17417 6.520507-19.443841 6.520507-33.473369 0-17.482163-4.999874-31.407314-14.875802-41.391712-9.886161-10.018168-22.782889-15.102976-38.317701-15.102976-13.992689 0-26.024723 4.175089-35.774785 12.414751-11.653411 9.892301-17.582447 25.245987-17.582447 45.590338 0 18.558681 4.959965 33.014928 14.710027 42.950208 9.768481 9.993608 22.76754 15.0733 38.647205 15.0733 9.832949 0 19.075451-2.303462 27.440979-6.828522C153.391553 689.697121 159.853731 683.235966 164.268274 674.997328M420.948261 161.201425c-0.078795 0.078795-14.551414 9.479909-27.643594 10.252505-9.874905 0.582261-17.899672-3.106758-24.478508-9.501398-6.687306-6.550183-10.101055-16.629749-10.101055-30.017664 0-13.369495 3.413749-23.428595 10.101055-29.927613 6.486738-6.291287 11.837606-10.05603 23.101137-10.05603 12.672624 0 20.555152 5.288446 29.136597 10.576893l8.947789-15.532765c-5.056156-4.623297-20.023032-13.005198-36.707017-13.06455-13.992689-0.050142-26.021653 4.175089-35.770691 12.414751-11.665691 9.892301-17.58347 25.245987-17.58347 45.589314 0 18.558681 4.950755 33.014928 14.70184 42.950208 9.768481 9.993608 22.766516 15.052834 38.652322 15.0733 11.361769 0.014326 18.517749-2.003634 26.883277-6.529717 2.049682-1.111311 7.81192-4.465708 10.006911-5.995551L420.948261 161.201425zM631.873158 426.333922c-13.019525 0-20.303418-2.39556-20.303418-19.847024l0-77.007885-19.425422 0 0 19.301602 0 66.722634c0 17.45658 12.108782 30.004361 30.506804 30.004361l23.604604 0 0-19.207457C646.255727 426.300152 641.901559 426.333922 631.873158 426.333922M328.750419 426.333922c13.019525 0 20.302395-2.39556 20.302395-19.847024l0-77.007885 19.425422 0 0 19.301602 0 66.722634c0 17.45658-12.108782 30.004361-30.506804 30.004361l-23.604604 0 0-19.207457C314.367851 426.300152 318.722018 426.333922 328.750419 426.333922M169.062464 189.957353l21.606087 0-38.567387-96.79965c0 0-6.435573-19.228947-24.648376-19.228947-18.152429 0-24.641213 19.228947-24.641213 19.228947L64.237023 189.957353l19.947308 0 16.081257-40.989553 52.957119 0L169.062464 189.957353zM119.090329 102.836133c0 0 2.226714-6.15314 8.363482-6.15314 6.345522 0 8.380878 6.15314 8.380878 6.15314l9.846252 26.151613 0.447185 1.188058-38.262442 0L119.090329 102.836133zM289.856597 127.758756c5.517667-5.714142 8.898671-13.195533 8.898671-21.403472 0-17.857716-15.872502-32.387641-35.381835-32.387641l-36.516682 0 0-0.037862-19.288299 0 0 116.016317 18.173918 0 0 0.01228 41.314964 0c20.898982 0 37.902238-15.527648 37.902238-34.613332C304.95855 144.078443 299.008025 134.083811 289.856597 127.758756zM263.37241 93.25594c8.874111 0 16.093537 5.876847 16.093537 13.099343s-7.219425 13.098319-16.093537 13.098319l-36.516682 0L226.855728 93.25594 263.37241 93.25594zM267.057335 170.670078l-40.201607 0 0-30.651091 40.201607 0c10.262738 0 18.61394 6.874571 18.61394 15.325034S277.320073 170.670078 267.057335 170.670078zM557.718251 104.248296c-3.254114-8.054443-8.255011-14.774495-14.859429-19.967774-5.098111-4.053316-11.332093-6.898107-18.525935-8.455579-5.075599-1.113357-12.483312-1.696642-22.019503-1.732457l-36.630269-0.163729-0.433882 115.856681 38.622646 0.170892c7.455809 0.027629 14.161534-0.606821 19.930935-1.883907 5.834892-1.289366 10.908444-3.237741 15.07944-5.794983 4.179183-2.560312 8.074909-6.113231 11.580756-10.562567 3.499707-4.443196 6.408967-10.117428 8.643867-16.864086 2.230808-6.726192 3.377934-14.535041 3.41068-23.214724C562.555419 121.440863 560.940642 112.224967 557.718251 104.248296zM542.380938 131.330094c-0.030699 8.232498-1.096984 15.307637-3.167133 21.032012-2.045589 5.644557-4.90573 10.178827-8.503675 13.474896-2.505054 2.297322-5.948479 4.110621-10.237155 5.38873-4.374634 1.305739-10.552334 1.952468-18.365276 1.922792l-17.156752-0.091074 0.308015-82.165348 16.742313 0c9.321296 0.034792 16.123212 0.800225 20.211321 2.270716 5.570879 2.025123 10.380418 6.077416 14.297634 12.041244C540.448936 111.202685 542.422893 119.991862 542.380938 131.330094zM676.43712 73.92978 676.43712 90.667999l-58.038858 0c-9.172917 0-13.759375 3.306302-13.759375 9.91993l0 23.357987 66.449411 0 0 16.739243-66.449411 0 0 22.61302c0 3.28379 1.084705 5.831822 3.25309 7.649214 1.834788 1.514493 4.196579 2.272763 7.088442 2.272763l61.457724 0 0 16.737196L614.980419 189.957353c-4.836145 0-9.952676-0.935302-15.343453-2.801812-10.45205-3.635807-15.678074-12.346189-15.678074-26.128077l0-59.832713c0-8.229428 2.668783-14.996552 8.005324-20.296255 4.724605-4.64581 11.118222-6.968715 19.179828-6.968715L676.43712 73.92978zM817.685098 73.92978 817.685098 90.667999l-58.038858 0c-9.172917 0-13.759375 3.306302-13.759375 9.91993l0 23.357987 66.449411 0 0 16.739243-66.449411 0 0 49.272193c-4.554736 0-20.681018 0-20.681018 0L725.205846 101.19475c0-8.229428 2.668783-14.996552 8.005324-20.296255 4.724605-4.64581 11.118222-6.968715 19.179828-6.968715L817.685098 73.92978zM903.133212 129.076774l0 16.409738 35.173081 0c0 0 0.545422 9.67536-1.412163 13.589506-1.782599 3.564175-6.361895 8.608052-12.239765 10.764158-6.293333 2.310625-12.83533 3.483334-19.443841 3.483334-7.589862 0-14.859429-1.542122-21.608134-4.582365-6.621814-2.982938-11.733229-7.611352-15.192004-13.755282-3.498684-6.213515-5.272074-14.090926-5.272074-23.412223 0-7.55814 1.482771-14.660908 4.402263-21.099551 1.698688-3.694135 4.116761-7.132444 7.184633-10.221806 3.037173-3.059686 7.115048-5.572926 12.121062-7.471159 5.042853-1.912559 11.139711-2.883677 18.119683-2.883677 5.783727 0 11.109012 0.918929 15.827477 2.731204 4.635577 1.781576 8.229428 4.15974 10.68127 7.067976 2.501984 2.968611 4.638647 7.150864 6.349615 12.429077l0.528026 1.626034 17.775852-4.426823-0.514723-1.819438c-2.133593-7.540743-5.309936-13.764492-9.442046-18.49626-4.161786-4.759397-9.946536-8.511861-17.196661-11.151991-7.161097-2.605338-15.265682-3.927449-24.090675-3.927449-12.140505 0-23.034623 2.306532-32.383548 6.855128-9.454326 4.599761-16.799618 11.735275-21.831214 21.208021-4.987594 9.388834-7.517207 19.641339-7.517207 30.470989 0 10.943236 2.551102 20.99722 7.581676 29.882588 5.063319 8.942673 12.651135 15.866363 22.555715 20.578688 9.80532 4.6673 20.846794 7.034207 32.819476 7.034207 8.864902 0 17.630542-1.467421 26.056446-4.361331 5.235235-1.797949 16.859993-8.696056 21.344121-16.057721 3.966335-6.511297 3.966335-17.992793 3.966335-17.992793l0-22.550599L903.133212 129.076774zM520.243755 445.50761 534.122857 431.627485 483.359706 380.864334 531.190061 345.715813 519.257288 329.479013 453.274504 377.967354 453.274504 329.778842 433.645444 329.778842 433.645444 445.060425 453.274504 445.060425 453.274504 402.972864 467.35929 392.623146ZM957.454398 329.479013l-19.35072 0 0 83.250052-59.507302-75.467809c-0.766456-1.533936-1.762133-2.871397-3.025916-3.868097-1.189082-0.942465-7.207146-5.765307-13.674441-3.14155-6.043646 2.437515-7.004531 8.245801-7.004531 12.854772 0 8.861832 0.021489 59.995419 0.021489 102.401228l19.35072 0L874.263697 362.898147l60.82532 77.139891 0.095167-0.074701c0.483001 0.606821 1.01512 1.158383 1.612731 1.630127 1.189082 0.941442 7.207146 5.764284 13.674441 3.14155 6.043646-2.437515 7.004531-8.246825 7.004531-12.854772C957.475887 423.01841 957.454398 371.884822 957.454398 329.479013zM70.417793 841.60181l18.996656 0 25.104771 82.971713c3.2623 10.523681 7.257288 15.784498 11.984962 15.784498 5.380544 0 9.701966-5.334495 12.963243-16.007579l24.139793-82.747609 18.261922 0-28.134781 95.627964c-2.174526 7.049556-5.980201 12.359492-11.413957 15.932878-4.51278 2.977821-9.975189 4.466732-16.388249 4.466732-6.304589 0-11.605316-1.539053-15.898085-4.616134-5.055133-3.672646-8.588609-8.760524-10.598382-15.262612L70.417793 841.60181zM540.714995 642.160455c-5.53097-3.994987-14.465456-7.978718-26.565029-11.844769-8.379854-2.593058-13.820774-4.454452-16.200984-5.54632-8.940626-3.831258-10.816347-6.858198-10.816347-8.725732 0-4.684696 1.574868-7.968485 4.812609-10.038634 3.39226-2.166339 9.098215-3.264347 16.960277-3.264347 7.809873 0 13.884218 1.680269 18.042935 4.986571 3.024893 2.460028 5.788843 8.080026 8.324596 13.784958l0.613984 1.381463 15.994276-9.106402-0.398066-1.087774c-3.098571-8.467859-7.264451-14.827707-12.371772-18.894326-7.176446-5.823636-17.3389-8.775874-30.205952-8.775874-11.308557 0-20.61655 2.312672-27.652803 6.865361-8.553817 5.386684-12.891611 13.512758-12.891611 24.150026 0 8.801457 3.908006 16.047488 11.624758 21.539572 4.837168 3.396353 12.799514 6.867408 23.655769 10.314926 8.866948 2.89084 15.313777 5.357008 19.178805 7.338129 7.824199 3.867074 11.791557 7.931646 11.791557 12.082176 0 4.894474-2.072195 8.626471-6.337335 11.408841-4.689812 3.063779-11.461029 4.617158-20.12434 4.617158-11.180644 0-18.881023-4.104481-22.88829-12.199856l-0.62217-1.251503c-1.12359-2.25332-1.935072-3.8814-3.163039-6.903224l-0.583285-1.436722-15.645328 8.750291 0.338714 1.064238c1.261737 3.970428 2.802836 7.556093 4.578272 10.658757 7.433296 12.983709 19.503193 19.031449 37.984103 19.031449 12.602016 0 23.072485-2.511193 31.119765-7.463995 9.564843-5.886057 14.415314-14.725376 14.415314-26.27441C553.685401 657.030118 549.326117 648.568399 540.714995 642.160455zM725.178217 864.066451c1.289366-0.722454 2.417049-1.62194 3.28686-2.725064 0.945535-1.194198 5.78782-7.236821 3.15383-13.729699-2.447748-6.068206-8.280594-7.033184-12.906961-7.033184-8.898671 0-52.116985 0.021489-94.696756 0.021489l0 19.430538 78.060867 0-73.835635 74.66963 0.10847 0.107447c-0.281409 0.278339-0.549515 0.566912-0.792039 0.874927-0.952698 1.203408-5.832845 7.293103-3.178389 13.837146 2.466168 6.115278 8.344039 7.087419 13.007245 7.087419 8.967232 0 51.883671-0.021489 94.79397-0.021489l0-19.580964-79.124082 0L725.178217 864.066451zM438.568571 840.578504c-12.67774 19.191084-24.966625 37.107129-27.659967 39.815821-0.716314 0.604774-2.917446 1.775436-4.40738 1.775436-0.00307 0-0.008186 0-0.01228 0-1.806135-0.007163-4.627391-1.459235-5.931083-2.986007-1.708921-2.162246-15.117302-21.626553-26.748201-38.60525l-23.433712 0c10.435677 15.280008 33.081443 48.354288 35.364439 51.033303 2.920516 3.425006 6.838755 6.126534 11.042497 7.846712l0 57.148581 19.34151 0 0-57.149605c3.432169-1.426489 6.180769-3.298116 7.704472-4.670369 5.478781-4.935406 27.13501-37.72316 37.877679-54.207599L438.568571 840.579527zM258.860652 585.02927l-41.314964 0 0 0.001023-17.868973 0 0 116.027573 19.338441 0 0-46.801932 39.84652 0c20.898982 0 37.901215-15.527648 37.901215-34.613332C296.761867 600.555895 279.759635 585.02927 258.860652 585.02927zM258.860652 634.967636l-39.84652 0 0-30.650067 39.84652 0c10.262738 0 18.612916 6.873548 18.612916 15.325034C277.473569 628.093065 269.12339 634.967636 258.860652 634.967636zM429.048753 697.79352c-1.493004-1.6465-2.62785-3.571339-3.373841-5.721305-0.799202-2.295276-1.417279-4.742001-1.838881-7.275707-0.431835-2.568499-0.704035-5.219885-0.810459-7.882528-0.112564-2.765997-0.282433-5.522784-0.511653-8.273431-0.339738-2.702552-0.830925-5.352915-1.460258-7.878434-0.657986-2.635013-1.691525-5.062296-3.071965-7.215332-1.411139-2.198062-3.329838-4.106528-5.702885-5.672186-0.710175-0.468674-1.506307-0.88209-2.341325-1.270946 3.052522-2.243087 5.717212-4.90266 7.887644-7.892761 0.042979-0.053212 0.085958-0.103354 0.128937-0.157589l-0.024559 0c3.904936-5.441942 6.197142-11.932774 6.197142-18.910699 0-19.086707-17.003256-34.613332-37.901215-34.613332L344.909447 585.02927l0 0.001023-18.913768 0 0 116.027573 19.338441 0 0-46.801932 40.891316 0c0.25378 0 0.49835-0.029676 0.751107-0.034792 3.077082 0.094144 5.604648 0.550539 7.459902 1.402953 2.059915 0.945535 3.745301 2.215458 5.008061 3.773953 1.278109 1.584078 2.228761 3.472078 2.823302 5.610788 0.642636 2.309602 1.190105 4.796236 1.638313 7.461949 0.532119 2.539846 0.855484 5.167696 0.963954 7.807826 0.10847 2.761903 0.221034 5.345752 0.333598 7.745405 0.112564 2.484587 0.375553 4.770653 0.783853 6.789637 0.458441 2.293229 1.38351 4.15667 2.750647 5.538133l0.535189 0.540306 22.583344 0L429.048753 697.79352zM345.333096 604.317569l40.891316 0c10.262738 0 18.61394 6.873548 18.61394 15.325034 0 8.450463-8.350179 15.325034-18.61394 15.325034l-40.891316 0L345.333096 604.317569zM697.739285 585.02927 584.982198 585.02927 584.982198 604.361571 631.694079 604.361571 631.694079 701.057867 651.02638 701.057867 651.02638 604.361571 697.739285 604.361571ZM320.964082 840.578504l-15.847943 84.475973-16.112979-19.140942c-0.10847-0.12689-0.220011-0.252757-0.333598-0.37453-0.849344-0.909719-8.611122-8.896624-19.22997-9.169847-0.171915-0.005117-0.343831-0.007163-0.515746-0.007163-10.587126 0-18.041912 8.462742-19.495006 10.244318l-15.844873 18.413372-14.475689-84.442204L199.456704 840.57748l18.510586 107.981317c0.632403 3.695159 3.344165 6.693446 6.958482 7.694239 3.609201 1.000793 7.481392-0.173962 9.92607-3.01466l29.359678-34.119075c0.098237-0.113587 0.190335-0.229221 0.283456-0.345877 0.809435-1.033539 3.247974-3.00238 4.443196-3.045359 1.774413 0.046049 4.293793 1.771343 5.472642 2.924609l29.045523 34.504862c1.867534 2.218528 4.592598 3.447519 7.408737 3.447519 0.820692 0 1.647523-0.103354 2.462075-0.318248 3.619434-0.952698 6.364965-3.90289 7.054673-7.580652l20.284999-108.129696L320.964082 840.576457zM802.415322 585.02927l0 53.578266 0 14.959713 0 7.900947c0 11.166317-9.089006 20.25123-20.260439 20.25123l-21.418822 0c-11.171434 0-20.260439-9.084912-20.260439-20.25123l0-7.900947L740.475622 638.607536l0-53.578266L721.138204 585.02927l0 53.578266 0 14.959713 0 7.900947c0 21.829168 17.763572 39.58967 39.597857 39.58967l21.418822 0c21.834284 0 39.597857-17.760502 39.597857-39.58967l0-7.900947L821.75274 638.607536l0-53.578266L802.415322 585.02927zM239.899812 329.479013l19.338441 0 0 116.028597-19.338441 0 0-116.028597ZM152.915715 329.479013 152.915715 377.824091 83.575464 377.824091 83.575464 329.479013 64.237023 329.479013 64.237023 445.50761 83.575464 445.50761 83.575464 397.162532 152.915715 397.162532 152.915715 445.50761 172.254156 445.50761 172.254156 329.479013ZM484.942761 956.6071 509.298472 956.6071 542.017664 913.86974 574.73788 956.6071 599.093591 956.6071 554.196031 897.963469 598.128613 840.578504 573.772902 840.578504 542.017664 882.056174 510.263449 840.578504 485.906715 840.578504 529.84032 897.963469ZM960.904986 686.21788l-13.034874-12.370749c3.969405-8.072863 5.993504-18.934235 5.993504-32.353872 0-17.472953-4.996804-31.390941-14.868639-41.370223-9.881045-10.013051-22.77061-15.09479-38.297234-15.09479-13.985526 0-26.010397 4.173043-35.756365 12.408611-11.647271 9.886161-17.573237 25.232684-17.573237 45.565778 0 18.548448 4.956895 32.997532 14.70184 42.926672 9.763364 9.987468 22.75526 15.065114 38.626739 15.065114 9.827833 0 19.066241-2.301416 27.426653-6.824429 2.422166-1.313925 4.66423-2.808976 6.764054-4.442172l11.936867 11.329023L960.904986 686.21788zM900.697743 682.501232c-9.890254 0-17.884322-3.104711-24.466228-9.496282-6.683213-6.54609-10.095939-16.620539-10.095939-30.001291 0-13.361309 3.412726-23.416316 10.095939-29.912263 6.483668-6.287193 14.718213-9.462512 24.466228-9.462512 9.579169 0 17.740036 3.190669 24.25338 9.503445 6.735401 6.503111 10.148128 16.35755 10.148128 29.278837 0 6.503111-0.787946 12.205996-2.303462 17.130146l-13.826913-13.122879-14.07967 14.838963 15.926738 15.116279C915.082358 680.417781 908.346957 682.501232 900.697743 682.501232z" /></svg>