<?xml version="1.0" standalone="no"?><!DOCTYPE svg PUBLIC "-//W3C//DTD SVG 1.1//EN" "http://www.w3.org/Graphics/SVG/1.1/DTD/svg11.dtd"><svg class="icon" width="200px" height="200.00px" viewBox="0 0 1024 1024" version="1.1" xmlns="http://www.w3.org/2000/svg"><path d="M922.5 512h-447c-5.49 0-10.42 2.34-13.89 6.06a24.53 24.53 0 0 0-5.87 5.94H132.5V416h334c9.83 0 18.34-5.68 22.42-13.94 2.33-3.25 3.61-7.16 3.58-11.2l-0.5-67.24c-0.08-10.44-8.56-18.86-19-18.86h-55.7V144a19 19 0 0 0-11.87-17.61 18.992 18.992 0 0 0-20.78 4.39l-67.31 69.5a19.002 19.002 0 0 0-4.72 8.36l-29.5 111.5c-0.42 1.59-0.63 3.22-0.63 4.86v41h-3v-41c0-1.64-0.21-3.27-0.63-4.86l-29.5-111.5c-0.83-3.14-2.46-6.02-4.72-8.36l-67.31-69.5c-5.38-5.56-13.6-7.3-20.78-4.39A19 19 0 0 0 144.68 144v160.76h-41.7c-10.44 0-18.92 8.42-19 18.86l-0.44 60.19c-0.68 2.28-1.05 4.68-1.05 7.18v158c0 2.42 0.35 4.76 0.99 6.98v79.26c0 3.1 0.59 6.17 1.73 9.05l69.3 174.23c1.17 2.94 2.89 5.62 5.08 7.9l62.36 65.05a24.482 24.482 0 0 0 26.82 5.78 24.499 24.499 0 0 0 15.36-22.73V574h187.19v292.5a24.504 24.504 0 0 0 24.49 24.5c6.01 0 11.93-2.21 16.54-6.42l62.36-57.05c2.82-2.58 5-5.79 6.36-9.37l67.78-178.23 198.2-0.92 91.25 20.53c5.63 1.26 11.53-0.09 16.04-3.7 4.51-3.61 7.13-9.06 7.13-14.84V531c0.03-10.5-8.48-19-18.97-19z m-602-184.53l27.6-104.32 31.21-32.23v132.83c0 10.49 8.51 19 19 19h55.84l0.17 23.24H320.5v-38.52z m-156.81 15.29c10.49 0 19-8.51 19-19V190.93l31.21 32.23 27.6 104.32V366H121.68l0.17-23.24h41.84z m51.46 470.79l-16.86-17.59-65.79-165.42v-54.15h82.66v237.16z m688.35-196.3l-70.18-15.79c-1.4-0.31-2.83-0.46-4.26-0.46l-214.34 1c-1.84 0.01-3.64 0.29-5.37 0.8-10.55-0.81-20.81 5.33-24.76 15.72l-67.23 176.79-17.03 15.58v-256.9c0.26-1.3 0.42-2.63 0.47-3.99h402.7v67.25z" fill="#3F3F3F" /><path d="M653.67 276h72.66c7 0 12.67-5.67 12.67-12.67v-23.66c0-7-5.67-12.67-12.67-12.67h-72.66c-7 0-12.67 5.67-12.67 12.67v23.66c0 7 5.67 12.67 12.67 12.67zM922.5 299h-447c-10.49 0-19 8.51-19 19v91c0 10.49 8.51 19 19 19h447c10.49 0 19-8.51 19-19v-91c0-10.5-8.51-19-19-19z m-19 91h-409v-53h409v53z" fill="#E03B3B" /></svg>